PathFileType	4	(X/Y/Z)	10_2_90_p1_0-422_filt_butterworth.trc
DataRate	CameraRate	NumFrames	NumMarkers	Units	OrigDataRate	OrigDataStartFrame	OrigNumFrames
58.0	58.0	6	27	m	58.0	105	422
Frame#	Time	RHip			RKnee			RAnkle			RBigToe			RSmallToe			RHeel			LHip			LKnee			LAnkle			LBigToe			LSmallToe			LHeel			Neck			Head			Nose			RShoulder			RElbow			RWrist			RThumb			RIndex			RPinky			LShoulder			LElbow			LWrist			LThumb			LIndex			LPinky			
		X1	Y1	Z1	X2	Y2	Z2	X3	Y3	Z3	X4	Y4	Z4	X5	Y5	Z5	X6	Y6	Z6	X7	Y7	Z7	X8	Y8	Z8	X9	Y9	Z9	X10	Y10	Z10	X11	Y11	Z11	X12	Y12	Z12	X13	Y13	Z13	X14	Y14	Z14	X15	Y15	Z15	X16	Y16	Z16	X17	Y17	Z17	X18	Y18	Z18	X19	Y19	Z19	X20	Y20	Z20	X21	Y21	Z21	X22	Y22	Z22	X23	Y23	Z23	X24	Y24	Z24	X25	Y25	Z25	X26	Y26	Z26	X27	Y27	Z27	
105	1.8103448275862069	0.3147055986615131	0.6833640809525228	0.7342147426189178	0.31463751622668495	0.29975893339709814	0.755138260350198	0.3096574389090184	-0.09699781132149937	0.7967237640437879	0.27816907598748364	-0.12294831288186878	0.596112427232149	0.3460807453895537	-0.1475344214339319	0.6644344347933345	0.27759947156668197	-0.19087148543940874	0.8688689461452024	0.10579908458477326	0.6965206813861692	0.7315739275593016	0.08574885513381193	0.3048540248118621	0.7439747364631779	0.08066678623839178	-0.07005953953772986	0.7366149878623265	0.12071475840420579	-0.14061696530518125	0.5904739366749349	0.055811913252816696	-0.1198923977485705	0.6219251528225734	0.09769690382858552	-0.1529871521173669	0.8132652205122594	0.21424189084814305	1.3238129128420768	0.6891055312772786	0.22226456383924878	1.5504925766330735	0.6689283648337006	0.21948195461863718	1.442399643436295	0.6088006007233013	0.37031918522527624	1.2303265069172635	0.7248444976990339	0.5094301191670215	1.0301755171826767	0.8035478335334314	0.406996406785363	1.0003834803125744	0.6011534124307085	0.34371612154700715	1.0181425902024372	0.6167068573414661	0.3230460899621118	1.0081575750000744	0.5423241476073547	0.305290825072751	0.9623503262433043	0.5561224145253056	0.06102818664675084	1.2433320120358116	0.7296560773693974	-0.03159707387597658	0.9688573942632491	0.7068797011893475	0.09094173724869725	1.0732736607648614	0.5598203738580605	0.13805455508134132	1.1744587854222952	0.5568987894334829	0.154912850666458	1.1654916714158938	0.4976861734227567	0.16819984353538722	1.1149510523942416	0.5054791089751272	
106	1.827586206896552	0.3141104179425726	0.6837128831253912	0.7334208581908237	0.31503572368610766	0.30035744971119793	0.75388698141017	0.31001594042316705	-0.09688475856058835	0.7954377849212886	0.2779204620687369	-0.12395829175056183	0.5960675112491391	0.3462938414401437	-0.14398733634201155	0.6602816897873152	0.2776982094501604	-0.19189900250815028	0.8702624404579887	0.10493972418753529	0.696728230868159	0.7311673398519902	0.08609184422500157	0.30521696040220525	0.7429811893840579	0.08058688981762924	-0.0707873219668705	0.7372153022332422	0.11979162963288292	-0.1407499306964268	0.5902748914910133	0.055525216096021054	-0.11889337044773364	0.6224460475026198	0.0976843571374216	-0.15367896749461057	0.8136596929301844	0.21242273785160587	1.3234664300739716	0.6908928121636952	0.22108231714679416	1.5506216713626377	0.6665266936112764	0.21772181789948464	1.442596013323267	0.6041477890516849	0.3690975863450945	1.2328828626732324	0.7235436495206984	0.5118537402244538	1.0389727923692202	0.8132295195979138	0.4136401586224455	0.9933242310266251	0.6126396460675878	0.3492298877174882	1.0073646062397443	0.6216348461077303	0.33241996342385316	1.0008588277206756	0.5398451809429828	0.3156627111813206	0.952960510724239	0.567297385313225	0.06044663400267038	1.2431243997667354	0.7301578008026854	-0.031726322939584266	0.9707975521062652	0.7059601504764044	0.0907761873792386	1.0727585298616595	0.5597027332473743	0.13802710690900444	1.1740123869455	0.5637485477433445	0.1571455877766193	1.1661874736624305	0.5022925314620889	0.17079988309554406	1.116915652506103	0.513434194490785	
107	1.8448275862068968	0.3133964443997974	0.6838380225264119	0.7319517223162225	0.3154993167996515	0.30087986229979524	0.7525253279150842	0.31046055300823444	-0.0970268751361591	0.7941808880579981	0.27767547734061054	-0.12478354634952268	0.5960611726475439	0.34663965814982034	-0.14075149792157277	0.6563781780934593	0.2779240413260944	-0.19275467978570798	0.871330400698939	0.10392520291685874	0.6966682485169351	0.7303089338238226	0.08650506732681387	0.30551605933967463	0.741941290216137	0.08040136830439173	-0.07151797768353134	0.7380696971124593	0.11850619535107346	-0.1403894325744854	0.5904018802290032	0.05530586081907063	-0.11836168882657357	0.623222049274299	0.09760255740680668	-0.15435519793893882	0.8143391623589203	0.2108783142125057	1.322475172212045	0.69327038618637	0.22005338243109568	1.5506916340543333	0.6643325813917502	0.2159124234694716	1.4426906662767252	0.5989607105420818	0.36765351645927546	1.2348330040214053	0.7211335440143382	0.5130880603599168	1.044750694770051	0.8227326239235015	0.41874944610467285	0.9851464625809552	0.6258547664843643	0.3525790862331636	0.997708383995334	0.622166404152463	0.33952670109001615	0.9933487081238994	0.5391171047881239	0.3254541573359	0.9426345316817303	0.5800004248326703	0.05922332457579677	1.2425563400473296	0.7306158000024895	-0.03178253484697267	0.971774160669838	0.7054343351774317	0.09075587298017714	1.069944033495329	0.5593658244958324	0.14072378605088104	1.1728242360396928	0.5639978351133021	0.16031676201143866	1.1652173203971032	0.5058549898308969	0.17381112990627537	1.1134764604927723	0.5219920670512683	
108	1.862068965517241	0.31274675836962257	0.6836741210701652	0.7298545557799188	0.31598176994342525	0.30121376468994115	0.7511130049395397	0.31098365690231017	-0.09728581623700781	0.7929289266368018	0.2774786088236408	-0.1251690202230974	0.5961331382310732	0.3469663745559488	-0.1381586941862386	0.6531296919890119	0.2782277937309801	-0.19329590623083276	0.8721353495469449	0.1027196680503736	0.6962444595980788	0.7291850056558338	0.08698466488825699	0.3056750005248893	0.7408854641031787	0.08007935517121013	-0.07224135910231794	0.7392075450079391	0.11711499388269242	-0.13947052196910387	0.5905991065349624	0.055231168314679106	-0.11860323298304914	0.6245742626406914	0.09734776474240162	-0.15480188307453221	0.8151399805635171	0.20980738867254645	1.320874948154979	0.6957192410010412	0.21911950280358422	1.5506685586275981	0.6629078356300402	0.2142133498449037	1.4427037949644246	0.5934753331588578	0.3662196297210791	1.2361925610842057	0.7177086645457305	0.5126375098281531	1.0466465070593263	0.8307474391073658	0.42200764980316413	0.9765659615708573	0.6393239890177842	0.3541627739259894	0.9891667175048056	0.6199133161355224	0.34411201521404505	0.9851521941904647	0.5411135639048649	0.33369018150105095	0.931850139807773	0.5925520361413447	0.05742444962148174	1.2415072700775762	0.7306857048683728	-0.03171796251275692	0.9712810284393207	0.7049607779123619	0.0910669171894538	1.0654785818948076	0.5587507388811599	0.14568218072594252	1.1699615917777684	0.5581332667939674	0.164126748853398	1.1617190622695404	0.5080518675503773	0.17679294758358174	1.1055621713477732	0.5290360181716482	
109	1.8793103448275863	0.31229329340623446	0.6830758673039466	0.7273551526744825	0.3164070137070509	0.30129738918540155	0.7496909392982569	0.31153704949440975	-0.09745185613150653	0.791644514301133	0.2773725822892231	-0.12518666375339155	0.5962009614983347	0.3471893521736751	-0.13615991057395935	0.6505139031148466	0.27854502468975556	-0.19353807346329563	0.8727559049842872	0.10132168933752068	0.6953453289288545	0.7281081100285762	0.0875144028037111	0.3055702954944054	0.7398089824513638	0.07964078592980096	-0.07302760047700657	0.7405836261222859	0.11601572404743644	-0.13789746853900037	0.590233704441496	0.05528179783696177	-0.11966897991390135	0.6263759765175081	0.09692119886223478	-0.1548784131511148	0.8158315081034041	0.20923785421759278	1.3187590923456993	0.6975348905156562	0.21822402357747822	1.5505701762672874	0.6625158003688281	0.21280292468295697	1.4427109623495378	0.5880752449790351	0.3650115220943494	1.2370985095651	0.7137537342697547	0.510479995171967	1.0447882072228156	0.8362687710429819	0.42329595001788445	0.9685232646860652	0.6517333167659656	0.3543963669346048	0.9809700644382048	0.6175133953322363	0.3464708252439513	0.9762295185301788	0.5454698291542952	0.3399732921634946	0.9213385976261055	0.6036719201163195	0.05524300576849786	1.239811844071347	0.7298430864303769	-0.031389855883959504	0.9690872112941908	0.7047362048049814	0.09200275824043369	1.0601846890160258	0.5580746376399448	0.15214853788049043	1.1635710806635697	0.5487785934438618	0.16816638937424488	1.1542575121014926	0.5089213532700669	0.17961846290863254	1.0942990651713134	0.533444092713464	
110	1.896551724137931	0.3120580079423686	0.6819300416190506	0.7247094540869892	0.3167272446900385	0.3011303913259266	0.7482960042942023	0.31206766060975066	-0.09741627901953981	0.7903150795275847	0.2773831155845399	-0.12513234804955153	0.5961282081897223	0.34721734655776554	-0.13460104827655625	0.6482508060892046	0.2788231238042175	-0.19362309971150157	0.8731832211203108	0.09974895820578902	0.6938807674040698	0.727251321589929	0.08807149053221588	0.3050743744205038	0.7386954433212504	0.07916781697352672	-0.07391957695637205	0.7420387073992271	0.11561488366460433	-0.13557105927229215	0.5887521637196107	0.055407627361125714	-0.12117693787930185	0.6279866888931986	0.09646988992877913	-0.15464638488943303	0.8162508833112425	0.2090015067176209	1.316225802968951	0.6981532298075523	0.21733973880526009	1.550423555602587	0.6631619396617263	0.21175028152221914	1.4427897920526271	0.583125218183371	0.36415415121825134	1.2375767852299875	0.7098643615569871	0.5071219914439641	1.0402708157758054	0.8389294820004499	0.422938929126355	0.961770842760243	0.6621228189492568	0.3533897765164654	0.9724131301759429	0.6168190807376863	0.34732560106916655	0.9672705672217549	0.5502200119898972	0.3443854232131245	0.9117772804271318	0.6127701595465416	0.05293085766251805	1.2373271130608967	0.7278095274216547	-0.030721228244757127	0.9656611673033478	0.7052413188623512	0.09365981005982464	1.0546329948843105	0.5573177361463972	0.15924047599147123	1.1521623148523965	0.5395248963548221	0.1719318021569861	1.141980494696668	0.5089739426764306	0.182405715893657	1.0799078090555343	0.535346472609437	
